<svg xmlns:mydata="http://www.w3.org/2000/svg" mydata:contrastcolor="ffffff" mydata:template="Contrast"
    mydata:presentation="2.5" mydata:layouttype="undefined" mydata:specialfontid="undefined" mydata:id1="146"
    mydata:id2="146" mydata:companyname="Kokodeo" mydata:companytagline="healthiness &amp; comfort" version="1.1"
    xmlns="http://www.w3.org/2000/svg" xmlns:xlink="http://www.w3.org/1999/xlink" viewBox="0 0 550 470">
    <g fill="#000000" fill-rule="nonzero" stroke="none" stroke-width="1" stroke-linecap="butt" stroke-linejoin="miter"
        stroke-miterlimit="10" stroke-dasharray="" stroke-dashoffset="0" font-family="none" font-weight="none"
        font-size="none" text-anchor="none" style="mix-blend-mode: normal">
        <g
            data-paper-data="{&quot;isGlobalGroup&quot;:true,&quot;bounds&quot;:{&quot;x&quot;:108.27514858672187,&quot;y&quot;:115.00000000000003,&quot;width&quot;:333.44970282655623,&quot;height&quot;:239.99999999999997}}">
            <g data-paper-data="{&quot;isSecondaryText&quot;:true}">
                <path
                    d="M121.4286,354.8082v-10.90327h-1.0918v4.79508h-5.65082v-4.79508h-1.0918v10.90327h1.0918v-5.11967h5.65082v5.11967z"
                    data-paper-data="{&quot;glyphName&quot;:&quot;H&quot;,&quot;glyphIndex&quot;:0,&quot;firstGlyphOfWord&quot;:true,&quot;word&quot;:1}"
                    fill="#000000"></path>
                <path
                    d="M136.96347,354.8082v-0.98852h-4.86885v-4.02787h4.70655v-0.98852h-4.70655v-3.90983h4.86885v-0.98852h-5.96065v10.90327z"
                    data-paper-data="{&quot;glyphName&quot;:&quot;E&quot;,&quot;glyphIndex&quot;:1,&quot;word&quot;:1}"
                    fill="#000000"></path>
                <path
                    d="M155.92074,354.8082l-4.6918,-10.90327h-1.22459l-4.67705,10.90327h1.15082l1.59344,-3.67377h5.07541l1.57869,3.67377zM152.7191,350.14591h-4.23442l2.13934,-5.00164z"
                    data-paper-data="{&quot;glyphName&quot;:&quot;A&quot;,&quot;glyphIndex&quot;:2,&quot;word&quot;:1}"
                    fill="#000000"></path>
                <path d="M170.22736,354.8082v-0.98852h-4.51475v-9.91475h-1.0918v10.90327z"
                    data-paper-data="{&quot;glyphName&quot;:&quot;L&quot;,&quot;glyphIndex&quot;:3,&quot;word&quot;:1}"
                    fill="#000000"></path>
                <path d="M181.85139,344.89345v-0.98852h-6.07868v0.98852h2.49344v9.91475h1.0918v-9.91475z"
                    data-paper-data="{&quot;glyphName&quot;:&quot;T&quot;,&quot;glyphIndex&quot;:4,&quot;word&quot;:1}"
                    fill="#000000"></path>
                <path
                    d="M197.90768,354.8082v-10.90327h-1.0918v4.79508h-5.65082v-4.79508h-1.0918v10.90327h1.0918v-5.11967h5.65082v5.11967z"
                    data-paper-data="{&quot;glyphName&quot;:&quot;H&quot;,&quot;glyphIndex&quot;:5,&quot;word&quot;:1}"
                    fill="#000000"></path>
                <path d="M207.72505,354.8082v-10.90327h-1.0918v10.90327z"
                    data-paper-data="{&quot;glyphName&quot;:&quot;I&quot;,&quot;glyphIndex&quot;:6,&quot;word&quot;:1}"
                    fill="#000000"></path>
                <path
                    d="M225.2726,354.8082v-10.90327h-1.0918v9.04426l-6.10819,-9.04426h-1.47541v10.90327h1.0918v-9.59016l6.4918,9.59016z"
                    data-paper-data="{&quot;glyphName&quot;:&quot;N&quot;,&quot;glyphIndex&quot;:7,&quot;word&quot;:1}"
                    fill="#000000"></path>
                <path
                    d="M240.95406,354.8082v-0.98852h-4.86885v-4.02787h4.70655v-0.98852h-4.70655v-3.90983h4.86885v-0.98852h-5.96065v10.90327z"
                    data-paper-data="{&quot;glyphName&quot;:&quot;E&quot;,&quot;glyphIndex&quot;:8,&quot;word&quot;:1}"
                    fill="#000000"></path>
                <path
                    d="M255.55621,351.76886c0,-0.95902 -0.39836,-1.81475 -1.0918,-2.33115c-0.44262,-0.32459 -0.9,-0.53115 -2.02131,-0.87049c-0.98852,-0.29508 -1.32787,-0.42787 -1.6082,-0.67869c-0.30984,-0.26557 -0.51639,-0.76721 -0.51639,-1.26885c0,-1.0918 0.79672,-1.90328 1.88852,-1.90328c1.10656,0 1.94754,0.76721 1.94754,1.94754h1.13606c0,-1.77049 -1.26885,-2.95082 -3.0541,-2.95082c-1.75574,0 -3.02459,1.23934 -3.02459,2.93606c0,0.75246 0.28033,1.47541 0.76721,1.93279c0.42787,0.41311 0.76721,0.57541 2.03606,0.95902c1.87377,0.57541 2.43442,1.0918 2.43442,2.28688c0,1.2541 -0.91475,2.16885 -2.1541,2.16885c-1.22459,0 -2.10983,-0.78197 -2.27213,-2.24262h-1.16557c0.10328,1.96229 1.4459,3.2459 3.40819,3.2459c1.88852,0 3.29016,-1.37213 3.29016,-3.23114z"
                    data-paper-data="{&quot;glyphName&quot;:&quot;S&quot;,&quot;glyphIndex&quot;:9,&quot;word&quot;:1}"
                    fill="#000000"></path>
                <path
                    d="M269.61042,351.76886c0,-0.95902 -0.39836,-1.81475 -1.0918,-2.33115c-0.44262,-0.32459 -0.9,-0.53115 -2.02131,-0.87049c-0.98852,-0.29508 -1.32787,-0.42787 -1.6082,-0.67869c-0.30984,-0.26557 -0.51639,-0.76721 -0.51639,-1.26885c0,-1.0918 0.79672,-1.90328 1.88852,-1.90328c1.10656,0 1.94754,0.76721 1.94754,1.94754h1.13606c0,-1.77049 -1.26885,-2.95082 -3.0541,-2.95082c-1.75574,0 -3.02459,1.23934 -3.02459,2.93606c0,0.75246 0.28033,1.47541 0.76721,1.93279c0.42787,0.41311 0.76721,0.57541 2.03606,0.95902c1.87377,0.57541 2.43442,1.0918 2.43442,2.28688c0,1.2541 -0.91475,2.16885 -2.1541,2.16885c-1.22459,0 -2.10983,-0.78197 -2.27213,-2.24262h-1.16557c0.10328,1.96229 1.4459,3.2459 3.40819,3.2459c1.88852,0 3.29016,-1.37213 3.29016,-3.23114z"
                    data-paper-data="{&quot;glyphName&quot;:&quot;S&quot;,&quot;glyphIndex&quot;:10,&quot;lastGlyphOfWord&quot;:true,&quot;word&quot;:1}"
                    fill="#000000"></path>
                <path
                    d="M297.8989,354.24754l-2.75901,-2.68524l2.00656,-3.85082h-1.20984l-1.59344,3.06885l-2.06557,-2.03606c1.6377,-0.84098 2.12459,-1.35738 2.12459,-2.5377c0,-1.43115 -1.12131,-2.49344 -2.62623,-2.49344c-1.43115,0 -2.58197,1.06229 -2.58197,2.41967c0,0.75246 0.29508,1.32787 1.20984,2.28688c-1.71147,0.88525 -2.50819,1.78524 -2.50819,3.2459c0,1.84426 1.4459,3.33442 3.4377,3.33442c1.4459,0 2.43442,-0.7377 3.29016,-2.44918l2.52295,2.44918zM293.81202,351.76886c-0.79672,1.62295 -1.50492,2.24262 -2.55246,2.24262c-1.26885,0 -2.28688,-0.98852 -2.28688,-2.22787c0,-1.0918 0.60492,-1.8 2.21311,-2.58197zM293.3694,346.11804c0,0.76721 -0.57541,1.34262 -1.88852,1.84426c-0.85574,-0.78197 -1.19508,-1.29836 -1.19508,-1.85901c0,-0.78197 0.66393,-1.40164 1.51967,-1.40164c0.88525,0 1.56393,0.61967 1.56393,1.41639z"
                    data-paper-data="{&quot;glyphName&quot;:&quot;&amp;&quot;,&quot;glyphIndex&quot;:11,&quot;firstGlyphOfWord&quot;:true,&quot;lastGlyphOfWord&quot;:true,&quot;word&quot;:2}"
                    fill="#000000"></path>
                <path
                    d="M327.33641,351.9459h-1.20984c-1.15082,1.4459 -2.19836,2.05082 -3.7918,2.05082c-2.52295,0 -4.60328,-2.09508 -4.60328,-4.64754c0,-2.62623 1.9918,-4.63278 4.58852,-4.63278c1.53443,0 2.81803,0.56066 3.74754,2.02131h1.22459c-0.84098,-1.87377 -2.75901,-3.02459 -5.01639,-3.02459c-3.2459,0 -5.65082,2.41967 -5.65082,5.68032c0,3.18688 2.46393,5.60655 5.72459,5.60655c2.21311,0 3.89508,-1.03279 4.98688,-3.0541z"
                    data-paper-data="{&quot;glyphName&quot;:&quot;C&quot;,&quot;glyphIndex&quot;:12,&quot;firstGlyphOfWord&quot;:true,&quot;word&quot;:3}"
                    fill="#000000"></path>
                <path
                    d="M348.21329,349.36394c0,-3.11311 -2.59672,-5.65082 -5.75409,-5.65082c-3.12787,0 -5.76885,2.55246 -5.76885,5.57704c0,3.17213 2.56721,5.70983 5.76885,5.70983c3.15737,0 5.75409,-2.55246 5.75409,-5.63606zM347.10673,349.37869c0,2.52295 -2.10983,4.61803 -4.64754,4.61803c-2.56721,0 -4.66229,-2.09508 -4.66229,-4.67705c0,-2.49344 2.13934,-4.60328 4.66229,-4.60328c2.5377,0 4.64754,2.10983 4.64754,4.66229z"
                    data-paper-data="{&quot;glyphName&quot;:&quot;O&quot;,&quot;glyphIndex&quot;:13,&quot;word&quot;:3}"
                    fill="#000000"></path>
                <path
                    d="M370.04361,354.8082v-10.90327h-1.69672l-3.9541,9.28032l-3.96885,-9.28032h-1.69672v10.90327h1.0918v-9.70819l4.08688,9.70819h0.94426l4.10164,-9.70819v9.70819z"
                    data-paper-data="{&quot;glyphName&quot;:&quot;M&quot;,&quot;glyphIndex&quot;:14,&quot;word&quot;:3}"
                    fill="#000000"></path>
                <path
                    d="M385.68294,344.89345v-0.98852h-5.53278v10.90327h1.0918v-4.98688h4.27869v-0.98852h-4.27869v-3.93934z"
                    data-paper-data="{&quot;glyphName&quot;:&quot;F&quot;,&quot;glyphIndex&quot;:15,&quot;word&quot;:3}"
                    fill="#000000"></path>
                <path
                    d="M405.87603,349.36394c0,-3.11311 -2.59672,-5.65082 -5.75409,-5.65082c-3.12787,0 -5.76885,2.55246 -5.76885,5.57704c0,3.17213 2.56721,5.70983 5.76885,5.70983c3.15737,0 5.75409,-2.55246 5.75409,-5.63606zM404.76948,349.37869c0,2.52295 -2.10983,4.61803 -4.64754,4.61803c-2.56721,0 -4.66229,-2.09508 -4.66229,-4.67705c0,-2.49344 2.13934,-4.60328 4.66229,-4.60328c2.5377,0 4.64754,2.10983 4.64754,4.66229z"
                    data-paper-data="{&quot;glyphName&quot;:&quot;O&quot;,&quot;glyphIndex&quot;:16,&quot;word&quot;:3}"
                    fill="#000000"></path>
                <path
                    d="M423.0977,347.4164c0,-2.27213 -1.26885,-3.51147 -4.6918,-3.51147h-2.7v10.90327h1.0918v-9.91475h1.53443c2.5377,0 3.65901,0.66393 3.65901,2.47869c0,1.96229 -1.03279,2.49344 -4.08688,2.49344l3.67377,4.94262h1.35738l-3.0541,-4.07213c2.09508,-0.22131 3.21639,-1.38688 3.21639,-3.31967z"
                    data-paper-data="{&quot;glyphName&quot;:&quot;R&quot;,&quot;glyphIndex&quot;:17,&quot;word&quot;:3}"
                    fill="#000000"></path>
                <path d="M436.40582,344.89345v-0.98852h-6.07868v0.98852h2.49344v9.91475h1.0918v-9.91475z"
                    data-paper-data="{&quot;glyphName&quot;:&quot;T&quot;,&quot;glyphIndex&quot;:18,&quot;lastGlyphOfWord&quot;:true,&quot;word&quot;:3}"
                    fill="#000000"></path>
            </g>
            <g data-paper-data="{&quot;isPrimaryText&quot;:true}">
                <path
                    d="M136.01267,329.03434l-15.91229,-20.65328l15.91229,-19.61789h-5.06796l-18.637,23.16001v-23.16001h-4.03257v40.27118h4.03257v-11.00782l5.23144,-6.43031l13.40556,17.43813z"
                    data-paper-data="{&quot;glyphName&quot;:&quot;K&quot;,&quot;glyphIndex&quot;:0,&quot;firstGlyphOfWord&quot;:true,&quot;word&quot;:1}"
                    fill="#000000"></path>
                <path
                    d="M190.47049,308.926c0,-11.49827 -9.59097,-20.87126 -21.25272,-20.87126c-11.55276,0 -21.30721,9.42749 -21.30721,20.59879c0,11.71624 9.48198,21.08924 21.30721,21.08924c11.66175,0 21.25272,-9.42749 21.25272,-20.81677zM186.38343,308.98049c0,9.3185 -7.79266,17.05667 -17.16566,17.05667c-9.48198,0 -17.22015,-7.73817 -17.22015,-17.27465c0,-9.20951 7.90165,-17.00217 17.22015,-17.00217c9.37299,0 17.16566,7.79266 17.16566,17.22015z"
                    data-paper-data="{&quot;glyphName&quot;:&quot;O&quot;,&quot;glyphIndex&quot;:1,&quot;word&quot;:1}"
                    fill="#000000"></path>
                <path
                    d="M236.10026,329.03434l-15.91229,-20.65328l15.91229,-19.61789h-5.06796l-18.637,23.16001v-23.16001h-4.03257v40.27118h4.03257v-11.00782l5.23144,-6.43031l13.40556,17.43813z"
                    data-paper-data="{&quot;glyphName&quot;:&quot;K&quot;,&quot;glyphIndex&quot;:2,&quot;word&quot;:1}"
                    fill="#000000"></path>
                <path
                    d="M290.55808,308.926c0,-11.49827 -9.59097,-20.87126 -21.25272,-20.87126c-11.55276,0 -21.30721,9.42749 -21.30721,20.59879c0,11.71624 9.48198,21.08924 21.30721,21.08924c11.66175,0 21.25272,-9.42749 21.25272,-20.81677zM286.47102,308.98049c0,9.3185 -7.79266,17.05667 -17.16566,17.05667c-9.48198,0 -17.22015,-7.73817 -17.22015,-17.27465c0,-9.20951 7.90165,-17.00217 17.22015,-17.00217c9.37299,0 17.16566,7.79266 17.16566,17.22015z"
                    data-paper-data="{&quot;glyphName&quot;:&quot;O&quot;,&quot;glyphIndex&quot;:3,&quot;word&quot;:1}"
                    fill="#000000"></path>
                <path
                    d="M342.45468,309.03499c0,-7.57469 -3.16066,-13.56904 -9.15502,-17.11116c-3.81459,-2.28875 -8.06513,-3.16066 -15.36735,-3.16066h-9.48198v40.27118h10.84434c15.74881,0 23.16001,-8.3921 23.16001,-19.99935zM338.36761,308.87151c0,5.28593 -2.07078,9.91794 -5.77638,12.91511c-3.21515,2.56123 -7.35671,3.59661 -14.49544,3.59661h-5.6129v-32.96896h5.6129c6.10334,0 9.91794,0.76292 12.96961,2.61572c4.632,2.7792 7.30222,7.84716 7.30222,13.84151z"
                    data-paper-data="{&quot;glyphName&quot;:&quot;D&quot;,&quot;glyphIndex&quot;:4,&quot;word&quot;:1}"
                    fill="#000000"></path>
                <path
                    d="M382.36256,329.03434v-3.65111h-17.98307v-14.8769h17.38363v-3.65111h-17.38363v-14.44095h17.98307v-3.65111h-22.01564v40.27118z"
                    data-paper-data="{&quot;glyphName&quot;:&quot;E&quot;,&quot;glyphIndex&quot;:5,&quot;word&quot;:1}"
                    fill="#000000"></path>
                <path
                    d="M441.72485,308.926c0,-11.49827 -9.59097,-20.87126 -21.25272,-20.87126c-11.55276,0 -21.30721,9.42749 -21.30721,20.59879c0,11.71624 9.48198,21.08924 21.30721,21.08924c11.66175,0 21.25272,-9.42749 21.25272,-20.81677zM437.63779,308.98049c0,9.3185 -7.79266,17.05667 -17.16566,17.05667c-9.48198,0 -17.22015,-7.73817 -17.22015,-17.27465c0,-9.20951 7.90165,-17.00217 17.22015,-17.00217c9.37299,0 17.16566,7.79266 17.16566,17.22015z"
                    data-paper-data="{&quot;glyphName&quot;:&quot;O&quot;,&quot;glyphIndex&quot;:6,&quot;lastGlyphOfWord&quot;:true,&quot;word&quot;:1}"
                    fill="#000000"></path>
            </g>
            <g
                data-paper-data="{&quot;fillRule&quot;:&quot;nonzero&quot;,&quot;fillRuleOriginal&quot;:&quot;nonzero&quot;,&quot;isIcon&quot;:true,&quot;iconStyle&quot;:&quot;standalone&quot;,&quot;selectedEffects&quot;:{&quot;container&quot;:&quot;circle_simple_outline3&quot;,&quot;transformation&quot;:&quot;&quot;,&quot;pattern&quot;:&quot;&quot;},&quot;bounds&quot;:{&quot;x&quot;:205.99342393881642,&quot;y&quot;:115.00000000000003,&quot;width&quot;:138.0131521223671,&quot;height&quot;:138.01303481129926},&quot;widthRatioIconToContainer&quot;:0.8258051623031674,&quot;heightRatioIconToContainer&quot;:0.8004060827189248,&quot;relativeBoundsIconToContainer&quot;:{&quot;top&quot;:0.0024396568829211287,&quot;left&quot;:-0.0007520454219112034},&quot;iconType&quot;:&quot;initial&quot;,&quot;initialText&quot;:&quot;K&quot;,&quot;rawInitialId&quot;:1082,&quot;blockLetter&quot;:&quot;O&quot;,&quot;monogramSpecial&quot;:&quot;colorful-dahlia&quot;,&quot;suitableAsStandaloneIcon&quot;:true}">
                <path
                    d="M314.11432,215.21042c-4.49116,7.7982 -16.95658,10.86748 -26.83898,4.89494c-8.02807,-4.85299 -9.71136,-7.35675 -14.25594,-17.32056c-1.24112,-2.72109 -3.30776,-6.67685 -5.65303,-8.55808c-0.58129,-0.46618 -0.81976,0.08319 -3.3178,0.0251c-0.66951,-0.01542 -0.62254,-0.69211 -0.07064,5.73264c2.83727,33.02921 7.90543,36.95197 4.02927,38.00626c-7.4873,2.03614 -8.62119,-2.82652 -10.07318,-8.0919c-2.58517,-9.37569 -3.30561,-11.82747 -4.31221,-19.72069c-2.611,-20.47376 -3.71693,-52.28514 -0.23633,-72.73667c0.5673,-3.33358 1.22642,-5.83699 4.44848,-6.31645c11.91711,-1.77401 2.46934,5.02116 5.0746,53.70485c0.3873,7.23448 0.34569,6.62163 0.69354,6.57286c1.5983,-0.22485 18.88623,-12.85272 29.48368,-38.57643c4.48327,-10.88254 3.47881,-15.51714 6.92644,-16.06581c2.16059,-0.3439 4.75293,-0.28474 5.40883,1.79767c3.35581,10.65483 -10.95499,42.83917 -34.35998,54.09322c9.97277,6.5854 7.98503,20.61685 24.42056,27.46618c3.02518,1.26049 5.08285,0.7355 7.33811,-1.64599c2.5321,-2.67411 2.81683,-5.43392 1.93359,-8.57636c-0.95711,-3.4053 7.2212,-3.72518 9.84439,-2.01176c1.92463,1.25691 0.66771,5.32814 -0.4834,7.32699zM292.41091,180.46207c14.2172,-8.17831 23.5201,17.55259 -1.23288,17.24669c-8.03846,-0.01004 -11.89238,-1.72632 -15.11659,-3.3974c-0.33314,-0.17285 -1.01269,-0.31413 -0.81116,-0.9546c0.12839,-0.40774 0.421,0.32883 1.90849,-0.50097c8.49281,-4.73822 9.76012,-9.23476 15.25214,-12.39369zM301.44449,170.37814c2.57764,-0.60784 5.20083,-0.69748 9.00525,-0.71937c30.26544,0.50743 24.84586,21.48861 6.11814,14.36028c-4.45242,-1.69476 -6.91389,-3.61867 -12.9413,-7.79461c-4.53669,-3.14351 -5.69785,-2.28825 -6.22321,-3.97296c-0.20513,-0.65731 3.21308,-1.67826 4.0411,-1.87334zM249.14751,178.90609c-0.30984,0.0728 -1.50434,-1.91315 -1.66715,-2.19034c-3.19265,-5.42532 -14.64646,-15.0854 -14.23945,-25.27942c0.0269,-2.95954 0.40988,-5.76383 2.89143,-7.93482c2.92405,-2.55864 5.71256,-0.298 7.80716,2.97031c6.5395,10.20408 4.81426,29.17815 5.63905,31.36636c0.16603,0.44001 -0.14559,1.00087 -0.43104,1.06792zM223.90575,164.69966c7.91152,-7.07382 29.62496,21.09737 25.67603,21.57037c-0.58596,0.07029 0.07638,-0.88826 -2.10464,-1.9612c-4.49188,-2.21079 -8.12452,-1.34727 -17.34853,-3.63049c-8.94251,-2.21366 -12.4371,-10.42245 -6.22286,-15.97867zM243.49665,214.75536c-5.13951,6.1773 -14.44636,2.9513 -15.20014,-3.15393c-0.28545,-2.31299 1.80915,-5.02512 3.32031,-6.99349c3.89192,-5.06994 11.17229,-9.85012 16.93398,-12.84411c0.71721,-0.37223 1.36376,-0.49273 1.68723,0.24062c0.31916,0.72331 -1.54163,0.05451 -2.73507,6.80451c-0.90726,5.13269 -0.24098,11.42045 -4.00632,15.94639zM249.71088,187.85074c0.48017,0.30446 1.16582,0.50636 1.15614,1.4025c-0.00431,0.37366 -0.34641,0.2876 -0.52034,0.15671c-1.26623,-0.95173 -4.50908,1.62806 -5.77603,2.58876c-3.43076,2.60132 -6.29242,5.01401 -10.63439,4.8096c-8.03129,-0.37834 -10.87179,-13.25758 1.98917,-13.25758c4.28102,-0.03873 8.43471,0.90512 13.78545,4.30001zM302.81935,166.96354c-1.17298,0.09145 -0.65946,-1.00265 1.05932,-6.19883c1.6736,-5.05955 2.06054,-10.5053 2.76878,-13.14785c1.84394,-6.88017 10.22487,-4.56502 10.64516,1.33508c0.55799,7.83011 -8.39276,17.53823 -14.47325,18.01158zM280.81005,199.03632c1.34153,0.48413 2.76125,0.59278 4.14689,0.86137c21.37744,4.1408 16.89419,17.03835 11.14289,15.89153c-9.19604,-0.8316 -12.47259,-13.56311 -15.10618,-15.28405c-0.82873,-0.54185 -1.03959,-1.77796 -0.18361,-1.46884zM267.61236,151.1674c-3.0033,-21.53559 11.82999,-25.36082 12.78279,-17.34279c0.5483,4.61524 -3.11985,10.04879 -6.87802,13.1224c-2.33702,1.91135 -2.51381,1.87299 -3.66492,3.24034c-1.03708,1.23216 -1.41864,1.52693 -2.06663,1.1798c-0.08679,-0.04661 -0.15708,-0.08283 -0.17321,-0.19974zM297.54968,226.93176c2.83439,3.54049 0.98005,9.65218 -4.65612,9.70131c-6.31895,-0.33099 -7.49194,-6.14754 -14.0569,-14.11177c-0.29514,-0.35825 0.1316,-1.18374 0.59922,-1.08011c0.85993,0.19042 1.93789,1.01235 6.66608,1.4441c3.84208,0.35107 9.03001,1.02632 11.44771,4.04648zM306.46456,195.61596c14.85911,-6.86942 18.40929,9.10925 0.20477,9.50084c-6.71234,-0.3353 -8.37161,-2.51848 -10.71938,-3.66779c-0.17751,-0.08679 -0.28079,-0.25067 -0.35789,-0.4314c-0.25568,-0.59958 -0.15096,-0.77207 0.48878,-0.84415c4.25985,-0.48017 6.11133,-2.5823 10.38373,-4.55749zM273.69428,238.18473c-2.6698,-3.15643 -3.562,-13.42865 -3.89085,-18.00765c0,-0.77458 -0.1212,-1.05716 0.29334,-1.18733c1.03097,-0.32381 0.32381,0.36758 3.65452,2.52852c18.23321,11.83032 4.3061,21.8257 -0.05702,16.66647zM277.15374,150.35517c-0.74017,-0.00071 -1.38386,-0.10363 -0.9209,-0.67704c1.8192,-2.25132 3.07647,-4.81928 4.79418,-8.23498c6.42547,-12.77741 15.78717,-9.28999 14.44707,-4.54567c-1.58395,5.60712 -11.89668,13.45768 -18.32035,13.45768zM249.47741,209.53087c1.28774,-0.03945 0.11727,1.70337 3.20664,11.17732c1.18842,3.64413 2.70316,8.04528 1.91889,10.40417c-1.51044,4.54423 -9.17667,3.31063 -9.5593,-8.27658c0.15168,-5.77066 3.05279,-7.88642 4.035,-12.83048c0.04161,-0.20943 0.05953,-0.46403 0.39877,-0.47443zM249.08868,213.74912l0.00646,0.02259c0.01686,-0.02439 0.01937,-0.01865 -0.00646,-0.02259zM327.42353,164.87931c-0.42064,5.97829 -12.71715,2.25096 -17.81077,2.97856c-0.64154,0.09145 -0.94887,0.28616 -1.11705,-0.15455c-0.41454,-1.08586 0.55441,-0.65589 2.06161,-2.22801c4.19099,-4.37174 6.10773,-5.89903 8.07073,-6.66214c4.74255,-1.84394 9.10388,1.68759 8.79548,6.06614zM318.61871,193.00101c3.40279,-0.01255 9.82574,5.34751 9.80064,10.25212c-0.09287,2.63861 -3.05494,6.43909 -5.47014,3.80371c-2.04368,-2.23015 -1.95725,-5.8205 -2.7989,-8.7987c-0.30337,-1.07293 -1.11776,-3.33464 -2.00745,-4.0515c-0.52715,-0.42495 -0.09825,-1.20347 0.47587,-1.20563zM248.8857,149.84342c-1.56458,-2.74654 -4.31436,-4.16624 -5.37762,-7.03078c-1.40465,-3.78434 0.76814,-6.73637 3.97513,-7.15845c2.82043,-0.37151 3.85212,2.74009 3.85212,5.5953c-0.02869,2.51166 -0.62863,4.89207 -1.48031,8.41464c-0.06957,0.28832 -0.71577,0.62434 -0.9693,0.17931zM234.02913,198.57839c0.51819,0.80865 -9.049,8.80767 -12.63324,2.8136c-1.39103,-2.32553 0.63545,-4.80637 3.34183,-4.70703c2.43133,-0.02223 4.76046,1.12063 7.41628,1.39497c1.36986,0.14164 1.4086,-0.22951 1.87513,0.49846zM322.31234,186.25249c4.79991,0.22985 9.21684,3.78685 8.23247,7.57586c-0.82336,3.16897 -4.03609,2.57548 -6.11635,-0.02188c-2.08026,-2.59736 -2.07381,-3.84136 -3.82415,-5.51855c-0.27863,-0.26681 -0.45292,-0.62577 -0.82192,-0.82085c-0.18395,-0.09717 -0.46223,-1.21459 2.52995,-1.21459zM318.01804,211.58462c3.23497,-4.21789 7.01179,-1.9899 5.50421,1.11526c-4.52092,9.30971 -12.2585,8.1654 -11.39355,7.43923c1.81346,-1.52228 2.12187,-3.64234 5.88935,-8.5545zM222.94683,187.06364c-5.15422,2.54178 -7.923,-7.13228 -0.45794,-7.17495c2.63501,-0.08966 4.27132,1.4007 6.62376,1.62232c0.3855,0.03621 1.13211,1.08944 0.46045,1.2942c-2.57692,0.78498 -3.94356,2.93553 -6.62627,4.25841zM231.40201,162.04673c-2.52279,-1.37022 -4.64393,-3.41929 -4.74864,-6.29851c0.14128,-3.55591 4.97348,-7.37217 7.00819,3.33931c0.76383,4.02138 2.05085,3.92384 1.16259,4.64034c-0.46476,0.37475 -0.17967,0.07997 -3.42216,-1.68113zM314.78776,192.36561c-1.32037,0.08713 -5.49811,-0.28438 -6.96229,0.83662c-0.24386,0.18648 -0.59744,0.11691 -0.49344,-0.33672c0.88181,-3.84818 5.9227,-8.1084 9.89782,-6.30032c2.57835,1.17263 2.52313,5.47157 -2.44209,5.80042zM312.5698,226.05642c-3.88583,3.33609 -12.86956,1.07975 -13.43653,-0.46547c-0.10902,-0.29764 0.00824,-0.46367 0.29118,-0.36362c3.56918,1.26373 8.19015,-3.82019 11.68044,-3.50893c2.09067,0.18611 3.13492,2.90469 1.4649,4.33803zM244.31749,215.95276c0.22914,0.05307 0.28007,0.24815 0.27361,0.44718c-0.53719,17.70965 -15.28082,7.37756 -3.90914,2.04907c2.64183,-1.23789 2.71712,-2.70925 3.63552,-2.49623zM221.09502,195.66834c-1.75967,0.14846 -4.28244,-3.05924 -0.16711,-5.99048c1.65567,-1.17909 2.95489,-1.03063 3.74525,-2.41054c0.31735,-0.55441 0.91981,0.08499 1.06362,0.76706c0.72546,3.43937 -1.77867,7.68309 -4.64177,7.63396zM281.98448,136.02356c0.35896,-0.89292 -0.18791,-2.29363 0.27469,-4.00668c1.13571,-4.2039 5.69284,-3.20842 5.79576,-1.01807c-0.25281,2.65367 -3.85858,3.60039 -5.22844,5.48772c-0.4002,0.55153 -1.0959,0.16818 -0.842,-0.46296zM318.20884,157.27085c-0.76669,0.17822 -1.05536,-0.20226 -0.94886,-0.48734c0.41886,-1.1192 1.08944,-3.5803 2.79711,-4.51339c2.42452,-1.32432 6.67039,3.01837 -1.84824,5.00074zM314.2685,205.59522c0.21696,-0.86926 1.85469,-2.56438 3.85929,-2.77954c3.76604,-0.40414 3.66671,6.57284 -1.76434,3.70939c-1.52477,-0.80399 -2.32482,-0.00754 -2.09495,-0.92986zM229.30705,204.24758c0.26285,-0.07064 0.88431,0.16245 0.65122,0.49057c-1.08299,1.52479 -2.09783,4.71027 -4.37282,4.65218c-1.30675,-0.1682 -2.5486,-1.44266 -1.63452,-2.97964c1.18769,-1.99635 3.57563,-1.68437 5.35611,-2.1631zM226.205,135.21158c6.36634,-6.36633 13.67758,-11.29552 21.93372,-14.78758c8.54915,-3.61599 17.50296,-5.42399 26.86141,-5.42399c9.35832,0 18.31211,1.808 26.86134,5.42399c8.25604,3.49206 15.56725,8.42125 21.93366,14.78758c6.3664,6.36639 11.29552,13.67764 14.78738,21.93372c3.61604,8.54913 5.42407,17.50289 5.42407,26.86129c0,9.35832 -1.80802,18.31211 -5.42407,26.86134c-3.49185,8.25604 -8.42097,15.56725 -14.78738,21.93366c-6.3664,6.3664 -13.67761,11.29565 -21.93366,14.78777c-8.54923,3.61578 -17.50301,5.42368 -26.86134,5.42368c-9.35846,0 -18.31226,-1.80789 -26.86141,-5.42368c-8.25614,-3.49211 -15.56739,-8.42137 -21.93372,-14.78777c-6.36633,-6.3664 -11.29552,-13.67761 -14.78758,-21.93366c-3.61599,-8.54923 -5.42399,-17.50301 -5.42399,-26.86134c0,-9.35838 1.808,-18.31215 5.42399,-26.86129c3.49206,-8.25614 8.42125,-15.56739 14.78758,-21.93372zM229.95847,229.04824c5.87831,5.87827 12.62767,10.42891 20.24808,13.65194c7.88822,3.33647 16.15275,5.00472 24.79358,5.00472c8.64067,0 16.9051,-1.66824 24.79327,-5.00472c7.6204,-3.22302 14.36972,-7.77367 20.24799,-13.65194c5.87853,-5.87827 10.42931,-12.62759 13.65233,-20.24799c3.33647,-7.88843 5.00472,-16.15299 5.00472,-24.79366c0,-8.64075 -1.66824,-16.90524 -5.00472,-24.79346c-3.22329,-7.62044 -7.77407,-14.36981 -13.65233,-20.24808c-5.87827,-5.87829 -12.62759,-10.42901 -20.24799,-13.6522c-7.88817,-3.33642 -16.1526,-5.00464 -24.79327,-5.00464c-8.64086,0 -16.90538,1.66821 -24.79358,5.00464c-7.62044,3.22318 -14.36981,7.77391 -20.24808,13.6522c-5.87829,5.87829 -10.42901,12.62764 -13.6522,20.24808c-3.33642,7.8882 -5.00464,16.15269 -5.00464,24.79346c0,8.64067 1.66821,16.90523 5.00464,24.79366c3.22318,7.6204 7.77391,14.36972 13.6522,20.24799z"
                    data-paper-data="{&quot;isPathIcon&quot;:true}" fill="#000000"></path>
            </g>
        </g>
    </g>
</svg>