<svg xmlns:mydata="http://www.w3.org/2000/svg" xmlns="http://www.w3.org/2000/svg"
    xmlns:xlink="http://www.w3.org/1999/xlink" mydata:contrastcolor="ffffff"
    mydata:template="Contrast" mydata:presentation="2.5" mydata:layouttype="undefined"
    mydata:specialfontid="undefined" mydata:id1="146" mydata:id2="146" mydata:companyname="Kokodeo"
    mydata:companytagline="healthiness &amp; comfort" version="1.1" viewBox="0 0 550 470">
    <g fill="#000000" fill-rule="nonzero" stroke="none" stroke-width="1" stroke-linecap="butt"
        stroke-linejoin="miter" stroke-miterlimit="10" stroke-dasharray="" stroke-dashoffset="0"
        font-family="none" font-weight="none" font-size="none" text-anchor="none"
        style="mix-blend-mode: normal">
        <g
            data-paper-data="{&quot;isGlobalGroup&quot;:true,&quot;bounds&quot;:{&quot;x&quot;:108.27514858672187,&quot;y&quot;:115.00000000000003,&quot;width&quot;:333.44970282655623,&quot;height&quot;:239.99999999999997}}">
            <g data-paper-data="{&quot;isSecondaryText&quot;:true}">
                <path
                    d="M121.4286,354.8082v-10.90327h-1.0918v4.79508h-5.65082v-4.79508h-1.0918v10.90327h1.0918v-5.11967h5.65082v5.11967z"
                    data-paper-data="{&quot;glyphName&quot;:&quot;H&quot;,&quot;glyphIndex&quot;:0,&quot;firstGlyphOfWord&quot;:true,&quot;word&quot;:1}"
                    fill="#000000" />
                <path
                    d="M136.96347,354.8082v-0.98852h-4.86885v-4.02787h4.70655v-0.98852h-4.70655v-3.90983h4.86885v-0.98852h-5.96065v10.90327z"
                    data-paper-data="{&quot;glyphName&quot;:&quot;E&quot;,&quot;glyphIndex&quot;:1,&quot;word&quot;:1}"
                    fill="#000000" />
                <path
                    d="M155.92074,354.8082l-4.6918,-10.90327h-1.22459l-4.67705,10.90327h1.15082l1.59344,-3.67377h5.07541l1.57869,3.67377zM152.7191,350.14591h-4.23442l2.13934,-5.00164z"
                    data-paper-data="{&quot;glyphName&quot;:&quot;A&quot;,&quot;glyphIndex&quot;:2,&quot;word&quot;:1}"
                    fill="#000000" />
                <path d="M170.22736,354.8082v-0.98852h-4.51475v-9.91475h-1.0918v10.90327z"
                    data-paper-data="{&quot;glyphName&quot;:&quot;L&quot;,&quot;glyphIndex&quot;:3,&quot;word&quot;:1}"
                    fill="#000000" />
                <path
                    d="M181.85139,344.89345v-0.98852h-6.07868v0.98852h2.49344v9.91475h1.0918v-9.91475z"
                    data-paper-data="{&quot;glyphName&quot;:&quot;T&quot;,&quot;glyphIndex&quot;:4,&quot;word&quot;:1}"
                    fill="#000000" />
                <path
                    d="M197.90768,354.8082v-10.90327h-1.0918v4.79508h-5.65082v-4.79508h-1.0918v10.90327h1.0918v-5.11967h5.65082v5.11967z"
                    data-paper-data="{&quot;glyphName&quot;:&quot;H&quot;,&quot;glyphIndex&quot;:5,&quot;word&quot;:1}"
                    fill="#000000" />
                <path d="M207.72505,354.8082v-10.90327h-1.0918v10.90327z"
                    data-paper-data="{&quot;glyphName&quot;:&quot;I&quot;,&quot;glyphIndex&quot;:6,&quot;word&quot;:1}"
                    fill="#000000" />
                <path
                    d="M225.2726,354.8082v-10.90327h-1.0918v9.04426l-6.10819,-9.04426h-1.47541v10.90327h1.0918v-9.59016l6.4918,9.59016z"
                    data-paper-data="{&quot;glyphName&quot;:&quot;N&quot;,&quot;glyphIndex&quot;:7,&quot;word&quot;:1}"
                    fill="#000000" />
                <path
                    d="M240.95406,354.8082v-0.98852h-4.86885v-4.02787h4.70655v-0.98852h-4.70655v-3.90983h4.86885v-0.98852h-5.96065v10.90327z"
                    data-paper-data="{&quot;glyphName&quot;:&quot;E&quot;,&quot;glyphIndex&quot;:8,&quot;word&quot;:1}"
                    fill="#000000" />
                <path
                    d="M255.55621,351.76886c0,-0.95902 -0.39836,-1.81475 -1.0918,-2.33115c-0.44262,-0.32459 -0.9,-0.53115 -2.02131,-0.87049c-0.98852,-0.29508 -1.32787,-0.42787 -1.6082,-0.67869c-0.30984,-0.26557 -0.51639,-0.76721 -0.51639,-1.26885c0,-1.0918 0.79672,-1.90328 1.88852,-1.90328c1.10656,0 1.94754,0.76721 1.94754,1.94754h1.13606c0,-1.77049 -1.26885,-2.95082 -3.0541,-2.95082c-1.75574,0 -3.02459,1.23934 -3.02459,2.93606c0,0.75246 0.28033,1.47541 0.76721,1.93279c0.42787,0.41311 0.76721,0.57541 2.03606,0.95902c1.87377,0.57541 2.43442,1.0918 2.43442,2.28688c0,1.2541 -0.91475,2.16885 -2.1541,2.16885c-1.22459,0 -2.10983,-0.78197 -2.27213,-2.24262h-1.16557c0.10328,1.96229 1.4459,3.2459 3.40819,3.2459c1.88852,0 3.29016,-1.37213 3.29016,-3.23114z"
                    data-paper-data="{&quot;glyphName&quot;:&quot;S&quot;,&quot;glyphIndex&quot;:9,&quot;word&quot;:1}"
                    fill="#000000" />
                <path
                    d="M269.61042,351.76886c0,-0.95902 -0.39836,-1.81475 -1.0918,-2.33115c-0.44262,-0.32459 -0.9,-0.53115 -2.02131,-0.87049c-0.98852,-0.29508 -1.32787,-0.42787 -1.6082,-0.67869c-0.30984,-0.26557 -0.51639,-0.76721 -0.51639,-1.26885c0,-1.0918 0.79672,-1.90328 1.88852,-1.90328c1.10656,0 1.94754,0.76721 1.94754,1.94754h1.13606c0,-1.77049 -1.26885,-2.95082 -3.0541,-2.95082c-1.75574,0 -3.02459,1.23934 -3.02459,2.93606c0,0.75246 0.28033,1.47541 0.76721,1.93279c0.42787,0.41311 0.76721,0.57541 2.03606,0.95902c1.87377,0.57541 2.43442,1.0918 2.43442,2.28688c0,1.2541 -0.91475,2.16885 -2.1541,2.16885c-1.22459,0 -2.10983,-0.78197 -2.27213,-2.24262h-1.16557c0.10328,1.96229 1.4459,3.2459 3.40819,3.2459c1.88852,0 3.29016,-1.37213 3.29016,-3.23114z"
                    data-paper-data="{&quot;glyphName&quot;:&quot;S&quot;,&quot;glyphIndex&quot;:10,&quot;lastGlyphOfWord&quot;:true,&quot;word&quot;:1}"
                    fill="#000000" />
                <path
                    d="M297.8989,354.24754l-2.75901,-2.68524l2.00656,-3.85082h-1.20984l-1.59344,3.06885l-2.06557,-2.03606c1.6377,-0.84098 2.12459,-1.35738 2.12459,-2.5377c0,-1.43115 -1.12131,-2.49344 -2.62623,-2.49344c-1.43115,0 -2.58197,1.06229 -2.58197,2.41967c0,0.75246 0.29508,1.32787 1.20984,2.28688c-1.71147,0.88525 -2.50819,1.78524 -2.50819,3.2459c0,1.84426 1.4459,3.33442 3.4377,3.33442c1.4459,0 2.43442,-0.7377 3.29016,-2.44918l2.52295,2.44918zM293.81202,351.76886c-0.79672,1.62295 -1.50492,2.24262 -2.55246,2.24262c-1.26885,0 -2.28688,-0.98852 -2.28688,-2.22787c0,-1.0918 0.60492,-1.8 2.21311,-2.58197zM293.3694,346.11804c0,0.76721 -0.57541,1.34262 -1.88852,1.84426c-0.85574,-0.78197 -1.19508,-1.29836 -1.19508,-1.85901c0,-0.78197 0.66393,-1.40164 1.51967,-1.40164c0.88525,0 1.56393,0.61967 1.56393,1.41639z"
                    data-paper-data="{&quot;glyphName&quot;:&quot;&amp;&quot;,&quot;glyphIndex&quot;:11,&quot;firstGlyphOfWord&quot;:true,&quot;lastGlyphOfWord&quot;:true,&quot;word&quot;:2}"
                    fill="#000000" />
                <path
                    d="M327.33641,351.9459h-1.20984c-1.15082,1.4459 -2.19836,2.05082 -3.7918,2.05082c-2.52295,0 -4.60328,-2.09508 -4.60328,-4.64754c0,-2.62623 1.9918,-4.63278 4.58852,-4.63278c1.53443,0 2.81803,0.56066 3.74754,2.02131h1.22459c-0.84098,-1.87377 -2.75901,-3.02459 -5.01639,-3.02459c-3.2459,0 -5.65082,2.41967 -5.65082,5.68032c0,3.18688 2.46393,5.60655 5.72459,5.60655c2.21311,0 3.89508,-1.03279 4.98688,-3.0541z"
                    data-paper-data="{&quot;glyphName&quot;:&quot;C&quot;,&quot;glyphIndex&quot;:12,&quot;firstGlyphOfWord&quot;:true,&quot;word&quot;:3}"
                    fill="#000000" />
                <path
                    d="M348.21329,349.36394c0,-3.11311 -2.59672,-5.65082 -5.75409,-5.65082c-3.12787,0 -5.76885,2.55246 -5.76885,5.57704c0,3.17213 2.56721,5.70983 5.76885,5.70983c3.15737,0 5.75409,-2.55246 5.75409,-5.63606zM347.10673,349.37869c0,2.52295 -2.10983,4.61803 -4.64754,4.61803c-2.56721,0 -4.66229,-2.09508 -4.66229,-4.67705c0,-2.49344 2.13934,-4.60328 4.66229,-4.60328c2.5377,0 4.64754,2.10983 4.64754,4.66229z"
                    data-paper-data="{&quot;glyphName&quot;:&quot;O&quot;,&quot;glyphIndex&quot;:13,&quot;word&quot;:3}"
                    fill="#000000" />
                <path
                    d="M370.04361,354.8082v-10.90327h-1.69672l-3.9541,9.28032l-3.96885,-9.28032h-1.69672v10.90327h1.0918v-9.70819l4.08688,9.70819h0.94426l4.10164,-9.70819v9.70819z"
                    data-paper-data="{&quot;glyphName&quot;:&quot;M&quot;,&quot;glyphIndex&quot;:14,&quot;word&quot;:3}"
                    fill="#000000" />
                <path
                    d="M385.68294,344.89345v-0.98852h-5.53278v10.90327h1.0918v-4.98688h4.27869v-0.98852h-4.27869v-3.93934z"
                    data-paper-data="{&quot;glyphName&quot;:&quot;F&quot;,&quot;glyphIndex&quot;:15,&quot;word&quot;:3}"
                    fill="#000000" />
                <path
                    d="M405.87603,349.36394c0,-3.11311 -2.59672,-5.65082 -5.75409,-5.65082c-3.12787,0 -5.76885,2.55246 -5.76885,5.57704c0,3.17213 2.56721,5.70983 5.76885,5.70983c3.15737,0 5.75409,-2.55246 5.75409,-5.63606zM404.76948,349.37869c0,2.52295 -2.10983,4.61803 -4.64754,4.61803c-2.56721,0 -4.66229,-2.09508 -4.66229,-4.67705c0,-2.49344 2.13934,-4.60328 4.66229,-4.60328c2.5377,0 4.64754,2.10983 4.64754,4.66229z"
                    data-paper-data="{&quot;glyphName&quot;:&quot;O&quot;,&quot;glyphIndex&quot;:16,&quot;word&quot;:3}"
                    fill="#000000" />
                <path
                    d="M423.0977,347.4164c0,-2.27213 -1.26885,-3.51147 -4.6918,-3.51147h-2.7v10.90327h1.0918v-9.91475h1.53443c2.5377,0 3.65901,0.66393 3.65901,2.47869c0,1.96229 -1.03279,2.49344 -4.08688,2.49344l3.67377,4.94262h1.35738l-3.0541,-4.07213c2.09508,-0.22131 3.21639,-1.38688 3.21639,-3.31967z"
                    data-paper-data="{&quot;glyphName&quot;:&quot;R&quot;,&quot;glyphIndex&quot;:17,&quot;word&quot;:3}"
                    fill="#000000" />
                <path
                    d="M436.40582,344.89345v-0.98852h-6.07868v0.98852h2.49344v9.91475h1.0918v-9.91475z"
                    data-paper-data="{&quot;glyphName&quot;:&quot;T&quot;,&quot;glyphIndex&quot;:18,&quot;lastGlyphOfWord&quot;:true,&quot;word&quot;:3}"
                    fill="#000000" />
            </g>
            <g data-paper-data="{&quot;isPrimaryText&quot;:true}">
                <path
                    d="M136.01267,329.03434l-15.91229,-20.65328l15.91229,-19.61789h-5.06796l-18.637,23.16001v-23.16001h-4.03257v40.27118h4.03257v-11.00782l5.23144,-6.43031l13.40556,17.43813z"
                    data-paper-data="{&quot;glyphName&quot;:&quot;K&quot;,&quot;glyphIndex&quot;:0,&quot;firstGlyphOfWord&quot;:true,&quot;word&quot;:1}"
                    fill="#000000" />
                <path
                    d="M190.47049,308.926c0,-11.49827 -9.59097,-20.87126 -21.25272,-20.87126c-11.55276,0 -21.30721,9.42749 -21.30721,20.59879c0,11.71624 9.48198,21.08924 21.30721,21.08924c11.66175,0 21.25272,-9.42749 21.25272,-20.81677zM186.38343,308.98049c0,9.3185 -7.79266,17.05667 -17.16566,17.05667c-9.48198,0 -17.22015,-7.73817 -17.22015,-17.27465c0,-9.20951 7.90165,-17.00217 17.22015,-17.00217c9.37299,0 17.16566,7.79266 17.16566,17.22015z"
                    data-paper-data="{&quot;glyphName&quot;:&quot;O&quot;,&quot;glyphIndex&quot;:1,&quot;word&quot;:1}"
                    fill="#000000" />
                <path
                    d="M236.10026,329.03434l-15.91229,-20.65328l15.91229,-19.61789h-5.06796l-18.637,23.16001v-23.16001h-4.03257v40.27118h4.03257v-11.00782l5.23144,-6.43031l13.40556,17.43813z"
                    data-paper-data="{&quot;glyphName&quot;:&quot;K&quot;,&quot;glyphIndex&quot;:2,&quot;word&quot;:1}"
                    fill="#000000" />
                <path
                    d="M290.55808,308.926c0,-11.49827 -9.59097,-20.87126 -21.25272,-20.87126c-11.55276,0 -21.30721,9.42749 -21.30721,20.59879c0,11.71624 9.48198,21.08924 21.30721,21.08924c11.66175,0 21.25272,-9.42749 21.25272,-20.81677zM286.47102,308.98049c0,9.3185 -7.79266,17.05667 -17.16566,17.05667c-9.48198,0 -17.22015,-7.73817 -17.22015,-17.27465c0,-9.20951 7.90165,-17.00217 17.22015,-17.00217c9.37299,0 17.16566,7.79266 17.16566,17.22015z"
                    data-paper-data="{&quot;glyphName&quot;:&quot;O&quot;,&quot;glyphIndex&quot;:3,&quot;word&quot;:1}"
                    fill="#000000" />
                <path
                    d="M342.45468,309.03499c0,-7.57469 -3.16066,-13.56904 -9.15502,-17.11116c-3.81459,-2.28875 -8.06513,-3.16066 -15.36735,-3.16066h-9.48198v40.27118h10.84434c15.74881,0 23.16001,-8.3921 23.16001,-19.99935zM338.36761,308.87151c0,5.28593 -2.07078,9.91794 -5.77638,12.91511c-3.21515,2.56123 -7.35671,3.59661 -14.49544,3.59661h-5.6129v-32.96896h5.6129c6.10334,0 9.91794,0.76292 12.96961,2.61572c4.632,2.7792 7.30222,7.84716 7.30222,13.84151z"
                    data-paper-data="{&quot;glyphName&quot;:&quot;D&quot;,&quot;glyphIndex&quot;:4,&quot;word&quot;:1}"
                    fill="#000000" />
                <path
                    d="M382.36256,329.03434v-3.65111h-17.98307v-14.8769h17.38363v-3.65111h-17.38363v-14.44095h17.98307v-3.65111h-22.01564v40.27118z"
                    data-paper-data="{&quot;glyphName&quot;:&quot;E&quot;,&quot;glyphIndex&quot;:5,&quot;word&quot;:1}"
                    fill="#000000" />
                <path
                    d="M441.72485,308.926c0,-11.49827 -9.59097,-20.87126 -21.25272,-20.87126c-11.55276,0 -21.30721,9.42749 -21.30721,20.59879c0,11.71624 9.48198,21.08924 21.30721,21.08924c11.66175,0 21.25272,-9.42749 21.25272,-20.81677zM437.63779,308.98049c0,9.3185 -7.79266,17.05667 -17.16566,17.05667c-9.48198,0 -17.22015,-7.73817 -17.22015,-17.27465c0,-9.20951 7.90165,-17.00217 17.22015,-17.00217c9.37299,0 17.16566,7.79266 17.16566,17.22015z"
                    data-paper-data="{&quot;glyphName&quot;:&quot;O&quot;,&quot;glyphIndex&quot;:6,&quot;lastGlyphOfWord&quot;:true,&quot;word&quot;:1}"
                    fill="#000000" />
            </g>
            <g
                data-paper-data="{&quot;fillRule&quot;:&quot;nonzero&quot;,&quot;fillRuleOriginal&quot;:&quot;nonzero&quot;,&quot;isIcon&quot;:true,&quot;iconStyle&quot;:&quot;standalone&quot;,&quot;selectedEffects&quot;:{&quot;container&quot;:&quot;circle_simple_outline3&quot;,&quot;transformation&quot;:&quot;&quot;,&quot;pattern&quot;:&quot;&quot;},&quot;bounds&quot;:{&quot;x&quot;:205.99342393881642,&quot;y&quot;:115.00000000000003,&quot;width&quot;:138.0131521223671,&quot;height&quot;:138.01303481129926},&quot;widthRatioIconToContainer&quot;:0.8258051623031674,&quot;heightRatioIconToContainer&quot;:0.8004060827189248,&quot;relativeBoundsIconToContainer&quot;:{&quot;top&quot;:0.0024396568829211287,&quot;left&quot;:-0.0007520454219112034},&quot;iconType&quot;:&quot;initial&quot;,&quot;initialText&quot;:&quot;K&quot;,&quot;rawInitialId&quot;:1082,&quot;blockLetter&quot;:&quot;O&quot;,&quot;monogramSpecial&quot;:&quot;colorful-dahlia&quot;,&quot;suitableAsStandaloneIcon&quot;:true}">

            </g>
        </g>
    </g>
</svg>